<svg id="Group_262" data-name="Group 262" xmlns="http://www.w3.org/2000/svg" xmlns:xlink="http://www.w3.org/1999/xlink" width="207.333" height="59.362" viewBox="0 0 207.333 59.362">
  <defs>
    <clipPath id="clip-path">
      <path id="Path_153" data-name="Path 153" d="M17.5-37.765A29.7,29.7,0,0,0,.793-3.859C3.159,6.341,13.58,17.261,21.064,17.112V-9.409h3.062V12.819c0,6.495,0,6.5,6.6,6.055a7.583,7.583,0,0,0,1.062-.281V-9.6l3.193.162V18.471A27.972,27.972,0,0,0,51.078,9.845l-4.838-5.3c-1.074.831-2.186,1.689-3.818,2.953v-24.51h-28.9V4.2c-7.633-7-8.024-20.29-1.255-28.78a21.387,21.387,0,0,1,14.038-8.165A22.309,22.309,0,0,1,46.235-25.8l5.048-4.935c-4.53-6.124-13.065-9.584-21.652-9.584A28.991,28.991,0,0,0,17.5-37.765Z" transform="translate(0 40.324)" fill="none"/>
    </clipPath>
    <linearGradient id="linear-gradient" x1="0.046" y1="0.5" x2="0.994" y2="0.5" gradientUnits="objectBoundingBox">
      <stop offset="0" stop-color="#ea7646"/>
      <stop offset="0.507" stop-color="#ec8d47"/>
      <stop offset="1" stop-color="#efa447"/>
    </linearGradient>
    <clipPath id="clip-path-2">
      <path id="Path_155" data-name="Path 155" d="M34.37-24.914a17.019,17.019,0,0,0-4.727,5.054l5.5,3.254q2.595-4.132,5.5-4.133A3.476,3.476,0,0,1,43.23-19.7a3.533,3.533,0,0,1,1.011,2.572,5.564,5.564,0,0,1-1.166,3.189,39.119,39.119,0,0,1-3.89,4.419L30.17-.292v5.1H51.848V-1.347H39.713l5.54-5.761a29.744,29.744,0,0,0,4.463-5.562,9.249,9.249,0,0,0,1.209-4.551,8.507,8.507,0,0,0-3.013-6.88,10.548,10.548,0,0,0-6.99-2.528A11.584,11.584,0,0,0,34.37-24.914Z" transform="translate(-29.643 26.63)" fill="none"/>
    </clipPath>
    <linearGradient id="linear-gradient-2" x1="0.046" y1="0.604" x2="0.994" y2="0.604" gradientUnits="objectBoundingBox">
      <stop offset="0" stop-color="#ea7646"/>
      <stop offset="0.1" stop-color="#ea7b46"/>
      <stop offset="0.2" stop-color="#eb7f46"/>
      <stop offset="0.3" stop-color="#eb8446"/>
      <stop offset="0.4" stop-color="#ec8846"/>
      <stop offset="0.5" stop-color="#ec8d47"/>
      <stop offset="0.6" stop-color="#ed9247"/>
      <stop offset="0.7" stop-color="#ee9647"/>
      <stop offset="0.8" stop-color="#ee9b47"/>
      <stop offset="0.9" stop-color="#efa047"/>
      <stop offset="1" stop-color="#efa447"/>
    </linearGradient>
  </defs>
  <g id="Group_233" data-name="Group 233">
    <g id="Group_230" data-name="Group 230" clip-path="url(#clip-path)">
      <g id="Group_229" data-name="Group 229" transform="translate(0 0)">
        <path id="Path_152" data-name="Path 152" d="M-2.07-20.162H63.772V39.2H-2.07Z" transform="translate(2.07 20.162)" fill="url(#linear-gradient)"/>
      </g>
    </g>
    <g id="Group_232" data-name="Group 232" transform="translate(43.637 20.16)" clip-path="url(#clip-path-2)">
      <g id="Group_231" data-name="Group 231" transform="translate(-43.637 -20.16)">
        <path id="Path_154" data-name="Path 154" d="M-2.07-24.372H63.772V34.989H-2.07Z" transform="translate(2.07 24.372)" fill="url(#linear-gradient-2)"/>
      </g>
    </g>
  </g>
  <g id="Group_235" data-name="Group 235" transform="translate(80.141 20.661)">
    <path id="Path_140" data-name="Path 140" d="M74.393-8.427a9.738,9.738,0,0,1-3.487.655c-3.734,0-5.931-2.529-5.931-6.547,0-4.464,2.581-6.636,5.9-6.636a8.44,8.44,0,0,1,3.515.744l.851-3.6a10.186,10.186,0,0,0-4.558-.893c-5.6,0-10.105,3.809-10.105,10.654,0,5.714,3.3,10.029,9.693,10.029a11.12,11.12,0,0,0,4.751-.863Z" transform="translate(-60.581 24.705)" fill="#082e5b"/>
    <path id="Path_141" data-name="Path 141" d="M87.965-4.427h4.092L91.04-24.485H85.576L83.6-17.819c-.6,2.232-1.236,4.88-1.757,7.2h-.082c-.412-2.351-.989-4.851-1.565-7.172l-1.812-6.7H72.807L71.626-4.427H75.5l.329-7.618c.137-2.5.22-5.595.33-8.3h.055c.439,2.619,1.071,5.476,1.675,7.827l1.977,7.767h3.268l2.252-7.827c.714-2.351,1.483-5.208,2.059-7.767h.082c0,2.916.082,5.833.165,8.243Z" transform="translate(-55.192 24.812)" fill="#082e5b"/>
    <path id="Path_142" data-name="Path 142" d="M90.3-5.242a11.339,11.339,0,0,0,5.245,1.22c5.08,0,7.469-2.857,7.469-6.22,0-2.827-1.538-4.672-4.805-5.981-2.389-.982-3.432-1.547-3.432-2.827,0-1.042.879-1.934,2.691-1.934a8.252,8.252,0,0,1,3.872.952l.934-3.66A10.6,10.6,0,0,0,97.552-24.7c-4.366,0-7,2.619-7,6.041,0,2.916,2,4.761,5.08,5.922,2.224.863,3.1,1.577,3.1,2.827,0,1.309-1.016,2.172-2.938,2.172a10.03,10.03,0,0,1-4.641-1.25Z" transform="translate(-46.079 24.705)" fill="#082e5b"/>
    <path id="Path_143" data-name="Path 143" d="M109.52-.233h4.174V-16.3c0-1.518.055-2.976.082-4.375h-4.037l-.11,1.7h-.055A3.951,3.951,0,0,0,105.84-21c-2.857,0-5.932,2.589-5.932,7.8,0,4.642,2.663,7.41,5.575,7.41a4.442,4.442,0,0,0,3.982-2.143h.055Zm0-12.171a4.017,4.017,0,0,1-.11.982,2.524,2.524,0,0,1-2.416,2.053c-1.757,0-2.829-1.577-2.829-4.017,0-2.351.961-4.107,2.884-4.107a2.518,2.518,0,0,1,2.388,2.172,3.424,3.424,0,0,1,.083.744Z" transform="translate(-41.392 26.51)" fill="#082e5b"/>
    <path id="Path_144" data-name="Path 144" d="M123.852-20.784h-4.2v8.66a2.714,2.714,0,0,1-.137.982,2.272,2.272,0,0,1-2.088,1.577c-1.455,0-2.086-1.28-2.086-3.392v-7.827h-4.2v8.541c0,4.494,2,6.339,4.723,6.339a4.728,4.728,0,0,0,4.2-2.381h.082l.192,2.053h3.626c-.055-1.22-.11-2.768-.11-4.672Z" transform="translate(-35.913 26.617)" fill="#082e5b"/>
    <path id="Path_145" data-name="Path 145" d="M133.387-6.125a24.473,24.473,0,0,1-.192-3.541v-5.059c0-3.422-1.428-6.279-5.9-6.279a10.4,10.4,0,0,0-5.217,1.28l.769,2.916a7.113,7.113,0,0,1,3.706-1.1c2.059,0,2.443,1.1,2.443,1.875v.208c-4.749-.03-7.88,1.786-7.88,5.565A4.288,4.288,0,0,0,125.452-5.8,4.674,4.674,0,0,0,129.3-7.583h.083l.247,1.458Zm-4.256-5.3a3.493,3.493,0,0,1-.083.774,2.3,2.3,0,0,1-2.169,1.666,1.559,1.559,0,0,1-1.647-1.726c0-1.756,1.7-2.321,3.9-2.291Z" transform="translate(-31.046 26.51)" fill="#082e5b"/>
    <path id="Path_146" data-name="Path 146" d="M131.253-6.125h4.174v-7.38a5.9,5.9,0,0,1,.082-1.012,2.728,2.728,0,0,1,2.857-2.291,5.524,5.524,0,0,1,1.125.119v-4.255a3.971,3.971,0,0,0-.878-.06A3.99,3.99,0,0,0,134.988-18h-.11l-.137-2.678h-3.6c.055,1.25.11,2.649.11,4.791Z" transform="translate(-26.152 26.51)" fill="#082e5b"/>
    <path id="Path_147" data-name="Path 147" d="M150.115-11.958a11.615,11.615,0,0,0,.137-1.786c0-3.6-1.647-7.261-5.986-7.261-4.669,0-6.783,4.077-6.783,7.767,0,4.553,2.61,7.41,7.167,7.41a12.346,12.346,0,0,0,4.861-.893l-.549-3.065a10.993,10.993,0,0,1-3.708.6c-1.949,0-3.651-.893-3.79-2.768Zm-8.678-3.095c.11-1.22.824-2.946,2.582-2.946,1.921,0,2.361,1.845,2.361,2.946Z" transform="translate(-23.059 26.51)" fill="#082e5b"/>
  </g>
</svg>
